<svg id="Layer_1" data-name="Layer 1" xmlns="http://www.w3.org/2000/svg" viewBox="0 0 80 80"><defs><style>.cls-1{fill:#fff;}.cls-2{fill:#3a3643;}</style></defs><path class="cls-1" d="M40,10A30,30,0,1,0,70,40,30,30,0,0,0,40,10"/><path class="cls-2" d="M53.89,54.91H26.11a.72.72,0,0,1-.72-.72V52.42a11.31,11.31,0,0,1,5.86-9.9.72.72,0,0,1,.69,1.26,9.89,9.89,0,0,0-5.11,8.64v1H53.17v-1a9.88,9.88,0,0,0-9.87-9.87H40a.72.72,0,0,1,0-1.44h3.3A11.32,11.32,0,0,1,54.61,52.42v1.77a.72.72,0,0,1-.72.72"/><path class="cls-2" d="M38,44.8l-.13,0c-4.59-1.37-7.33-6.7-7.32-11.06a.46.46,0,0,1,.46-.46.47.47,0,0,1,.46.46c0,4,2.49,8.93,6.66,10.18a.46.46,0,0,1,.31.57.47.47,0,0,1-.44.33"/><path class="cls-2" d="M40,42.57C35.69,42.45,33,36.72,33,32.82a7.65,7.65,0,0,1,7-7.73,7.66,7.66,0,0,1,7.08,7.74c0,3.89-2.74,9.63-7,9.74m-.05-16a6.17,6.17,0,0,0-5.58,6.29c0,3.29,2.36,8.22,5.63,8.31,3.23-.08,5.59-5,5.59-8.31h0A6.18,6.18,0,0,0,40,26.53"/><path class="cls-2" d="M33.52,35.29H32.06a1.56,1.56,0,0,1-1.56-1.57V31.86a1.56,1.56,0,0,1,1.56-1.56h1.46a.77.77,0,0,1,.65.26.92.92,0,0,1,0,.85,1.8,1.8,0,0,0-.09.45v1.86a1.87,1.87,0,0,0,.09.46.9.9,0,0,1,0,.84.75.75,0,0,1-.65.27m-1.46-4.07a.64.64,0,0,0-.64.64v1.86a.65.65,0,0,0,.64.65h1.26a2.38,2.38,0,0,1-.11-.65V31.86a2.3,2.3,0,0,1,.11-.64Z"/><path class="cls-2" d="M40.78,46.25H39.22a1.54,1.54,0,1,1,0-3.07h1.56a1.54,1.54,0,1,1,0,3.07m-1.56-2.11a.58.58,0,0,0-.58.58.57.57,0,0,0,.58.57h1.56a.57.57,0,0,0,.58-.57.58.58,0,0,0-.58-.58Z"/></svg>