<svg id="Layer_1" data-name="Layer 1" xmlns="http://www.w3.org/2000/svg" viewBox="0 0 150 80">
  <defs>
    <style>
      .cls-1 {
        fill: #fff;
      }
    </style>
  </defs>
  <g>
    <g>
      <path class="cls-1" d="M41.86,29.47A21.43,21.43,0,0,1,22.65,42.52c-10.41,0-15.93-8.3-14.27-17.27C10,16.77,18.12,8.06,29,8.06c10.41,0,14.49,8,14.4,13.24H34.5a6.83,6.83,0,0,0-7-5.79c-5.7,0-9.83,5-10.68,9.69-.94,5,1.57,9.88,7.09,9.88,5.3,0,8.3-4.45,9-5.61Z"/>
      <path class="cls-1" d="M49.35,40.64,44.5,17h7.94l2.38,14.45L62.27,17h7.9L51.54,50.2H43.65Z"/>
      <path class="cls-1" d="M73.31,8.69h7.44l-1.57,8.39L78.87,19a11.24,11.24,0,0,1,7.72-2.83c5.2,0,11.58,3.72,9.83,13.15-1.66,9-8.75,13.46-15.08,13.46-3.5,0-5.84-1.71-6.55-3.5l-.5,2.65H67.16ZM89,29.38c.58-3.19-1.26-6.29-4.94-6.29a7.68,7.68,0,0,0-7.36,6.29c-.67,3.45,1.12,6.41,4.85,6.41A7.88,7.88,0,0,0,89,29.42Z"/>
      <path class="cls-1" d="M105.07,32c-.18,2.65,2,4.4,4.94,4.4A6.11,6.11,0,0,0,115,34.09h7.62a18.83,18.83,0,0,1-6.23,6.37,14.06,14.06,0,0,1-7.5,2.24c-7.13,0-12.11-5.78-10.77-13.19,1.3-7,7.94-13.37,15.53-13.37a10.53,10.53,0,0,1,8.7,3.95c2.52,3.36,2.74,7.36,1.31,11.93Zm12.25-5.65c.05-1.17-1-3.95-4.84-3.95a6.74,6.74,0,0,0-6.29,3.95Z"/>
      <path class="cls-1" d="M128.45,17h7l-.54,2.78a7.81,7.81,0,0,1,7-3.63l-1.39,7.49h-.27c-3.81,0-5.83,1.39-6.51,4.89L131.28,41.9h-7.45Z"/>
    </g>
    <g>
      <path class="cls-1" d="M61.28,64.2c.42,4.31,3.58,5.22,5.19,5.22a5.08,5.08,0,0,0,5.18-4.94c0-3.64-3.12-4.44-6.13-5.42-2.1-.63-6.61-2-6.61-6.86-.08-4.59,3.74-7.14,7.7-7.14,3.22,0,6.93,1.78,7.35,6.68H71.09c-.32-1.68-1.16-4.23-4.59-4.23A4.45,4.45,0,0,0,61.78,52c0,3.15,2.52,3.92,6.44,5.25,2.45.95,6.3,2.31,6.3,7.07,0,4.24-3.19,7.6-8,7.6-4.34,0-7.94-2.73-8.12-7.67Z"/>
      <path class="cls-1" d="M99,71.41H96.39V67.53a8.36,8.36,0,0,1-7.7,4.41c-6.12,0-9.77-4.76-9.77-9.94a9.62,9.62,0,0,1,9.77-9.94,8.26,8.26,0,0,1,7.7,4.48v-4H99ZM81.48,62A7.35,7.35,0,0,0,89,69.52a7,7,0,0,0,6.79-4.58,7.21,7.21,0,0,0,.63-3,6.64,6.64,0,0,0-.59-3A7.26,7.26,0,0,0,89,54.44,7.38,7.38,0,0,0,81.48,62Z"/>
      <path class="cls-1" d="M105.77,45.51h2.59v25.9h-2.59Z"/>
      <path class="cls-1" d="M116.27,62.73a7.18,7.18,0,0,0,7.35,7,7,7,0,0,0,6.48-3.89h2.69a9.79,9.79,0,0,1-9.17,6.13,10.07,10.07,0,1,1,9.8-9.21Zm14.6-2.06a7.34,7.34,0,0,0-14.57,0Z"/>
    </g>
  </g>
</svg>
