<?xml version="1.0" encoding="utf-8"?>
<!-- Generator: Adobe Illustrator 21.1.0, SVG Export Plug-In . SVG Version: 6.00 Build 0)  -->
<svg version="1.1" id="Layer_1" xmlns="http://www.w3.org/2000/svg" xmlns:xlink="http://www.w3.org/1999/xlink" x="0px" y="0px"
	 viewBox="0 0 145.197 145.196" style="enable-background:new 0 0 145.197 145.196;" xml:space="preserve">
<style type="text/css">
	.st0{clip-path:url(#SVGID_2_);fill:#FFFFFF;}
	.st1{clip-path:url(#SVGID_2_);fill:#E01A22;}
	.st2{fill:#1C1C1B;}
	.st3{font-family:'ColesHapticExtraBold-Regular';}
	.st4{font-size:19.186px;}
</style>
<g>
	<defs>
		<rect id="SVGID_1_" width="145.197" height="145.196"/>
	</defs>
	<clipPath id="SVGID_2_">
		<use xlink:href="#SVGID_1_"  style="overflow:visible;"/>
	</clipPath>
	<path class="st0" d="M145.197,72.598c0,40.093-32.503,72.598-72.598,72.598S0,112.691,0,72.598C0,32.503,32.504-0.001,72.599-0.001
		S145.197,32.503,145.197,72.598"/>
	<path class="st1" d="M72.598,3.457c-38.185,0-69.141,30.955-69.141,69.141s30.956,69.141,69.141,69.141
		c38.186,0,69.142-30.955,69.142-69.141S110.784,3.457,72.598,3.457 M72.598,124.454c-28.639,0-51.855-23.217-51.855-51.856
		c0-28.64,23.216-51.856,51.855-51.856c28.64,0,51.856,23.216,51.856,51.856C124.454,101.237,101.238,124.454,72.598,124.454"/>
</g>
<text transform="matrix(1 0 0 1 112.584 70.0012)" class="st2 st3 st4"> </text>
<text transform="matrix(1 0 0 1 32.2324 100.4304)" class="st2 st3 st4"> </text>
<text transform="matrix(1 0 0 1 33.2109 100.4304)" class="st2 st3 st4"> </text>
<g>
	<path d="M48.962,97.131c0-2.049,0.22-3.801,0.661-5.256c0.44-1.454,1.08-2.639,1.917-3.553c0.837-0.915,1.856-1.581,3.058-2
		s2.573-0.628,4.116-0.628c1.542,0,2.914,0.209,4.115,0.628c1.201,0.419,2.22,1.085,3.058,2c0.837,0.914,1.476,2.099,1.917,3.553
		c0.44,1.455,0.661,3.207,0.661,5.256c0,2.05-0.221,3.796-0.661,5.239c-0.441,1.443-1.08,2.623-1.917,3.537
		c-0.838,0.914-1.857,1.581-3.058,2c-1.202,0.418-2.573,0.628-4.115,0.628c-1.543,0-2.915-0.21-4.116-0.628
		c-1.201-0.419-2.22-1.086-3.058-2s-1.477-2.094-1.917-3.537C49.183,100.926,48.962,99.18,48.962,97.131z M54.482,97.131
		c0,2.667,0.369,4.567,1.107,5.702s1.779,1.702,3.124,1.702c1.366,0,2.413-0.567,3.14-1.702c0.727-1.135,1.091-3.035,1.091-5.702
		c0-1.344-0.094-2.49-0.281-3.438c-0.188-0.947-0.462-1.719-0.826-2.313c-0.364-0.596-0.805-1.025-1.322-1.29
		c-0.518-0.264-1.119-0.396-1.801-0.396c-1.345,0-2.386,0.567-3.124,1.702C54.852,92.531,54.482,94.442,54.482,97.131z"/>
	<path d="M76.828,108.27l-5.455,0.165c0-1.74,0.011-3.394,0.033-4.958c0-0.661,0.005-1.339,0.017-2.033
		c0.011-0.693,0.021-1.36,0.033-2c0.011-0.639,0.017-1.233,0.017-1.784s0-1.014,0-1.389c0-2.864-0.012-5.14-0.033-6.826
		c-0.022-1.686-0.033-2.87-0.033-3.553h13.75c0.023,0.705,0.045,1.278,0.066,1.719s0.027,0.782,0.018,1.024
		c-0.012,0.243-0.039,0.425-0.084,0.546c-0.043,0.121-0.109,0.226-0.197,0.313c-0.133,0.133-0.303,0.221-0.512,0.265
		c-0.211,0.044-0.557,0.066-1.041,0.066l-6.578-0.033v5.619h7.305v3.735h-7.305V108.27z"/>
	<path d="M92.925,108.27l-5.454,0.165c0-1.74,0.011-3.394,0.033-4.958c0-0.661,0.005-1.339,0.017-2.033
		c0.011-0.693,0.021-1.36,0.032-2c0.011-0.639,0.017-1.233,0.017-1.784s0-1.014,0-1.389c0-2.864-0.011-5.14-0.033-6.826
		c-0.021-1.686-0.032-2.87-0.032-3.553h13.75c0.022,0.705,0.044,1.278,0.066,1.719c0.021,0.44,0.027,0.782,0.017,1.024
		c-0.012,0.243-0.039,0.425-0.083,0.546s-0.11,0.226-0.198,0.313c-0.132,0.133-0.303,0.221-0.512,0.265
		c-0.21,0.044-0.557,0.066-1.041,0.066l-6.578-0.033v5.619h7.305v3.735h-7.305V108.27z"/>
</g>
<g>
	<path d="M41.956,45.897c-0.843,0-1.452,0.146-1.827,0.436s-0.562,0.679-0.562,1.167c0,0.469,0.187,0.848,0.562,1.138
		c0.375,0.291,0.839,0.558,1.392,0.801c0.553,0.244,1.157,0.497,1.813,0.759c0.656,0.263,1.26,0.604,1.813,1.026
		c0.553,0.421,1.017,0.956,1.392,1.602c0.375,0.646,0.562,1.476,0.562,2.488c0,0.862-0.113,1.602-0.337,2.221
		c-0.225,0.618-0.53,1.134-0.914,1.546c-0.384,0.413-0.843,0.741-1.377,0.984c-0.534,0.244-1.11,0.422-1.729,0.534l0.028,3.261
		L39.398,64v-3.261c-0.432-0.019-0.867-0.07-1.307-0.155c-0.441-0.084-0.857-0.192-1.251-0.323
		c-0.394-0.131-0.745-0.271-1.054-0.421s-0.539-0.31-0.688-0.478c-0.094-0.094-0.174-0.201-0.239-0.323
		c-0.066-0.122-0.098-0.286-0.098-0.492c0-0.206,0.042-0.464,0.126-0.773s0.229-0.688,0.436-1.138
		c0.843,0.225,1.654,0.421,2.432,0.59c0.777,0.168,1.55,0.253,2.319,0.253c0.787,0,1.373-0.155,1.757-0.464s0.577-0.735,0.577-1.279
		c0-0.543-0.188-0.979-0.562-1.307c-0.375-0.328-0.839-0.618-1.392-0.871s-1.157-0.506-1.813-0.759
		c-0.656-0.253-1.26-0.581-1.813-0.984s-1.017-0.914-1.392-1.532c-0.375-0.618-0.562-1.424-0.562-2.417
		c0-0.843,0.136-1.569,0.408-2.178c0.271-0.609,0.627-1.115,1.068-1.518c0.44-0.403,0.928-0.712,1.462-0.928
		c0.534-0.215,1.073-0.37,1.616-0.464l-0.028-1.968c0-0.225,0.032-0.417,0.098-0.576c0.065-0.159,0.192-0.29,0.379-0.394
		c0.187-0.103,0.445-0.178,0.773-0.225s0.745-0.07,1.251-0.07c0.318,0,0.553,0.07,0.703,0.211c0.15,0.14,0.225,0.398,0.225,0.773
		l-0.056,2.108c0.262,0.019,0.576,0.066,0.941,0.141c0.366,0.075,0.726,0.169,1.083,0.281c0.355,0.112,0.679,0.234,0.97,0.365
		c0.291,0.131,0.501,0.263,0.632,0.394c0.094,0.094,0.164,0.207,0.211,0.337c0.046,0.131,0.065,0.3,0.056,0.506
		c-0.01,0.207-0.066,0.459-0.168,0.759c-0.104,0.3-0.267,0.665-0.492,1.096c-0.525-0.094-1.138-0.22-1.841-0.379
		C43.46,45.977,42.725,45.897,41.956,45.897z"/>
</g>
<g>
	<path d="M66.099,74.929c0,0.81,0.02,1.659,0.061,2.549c0.04,0.891,0.101,1.802,0.182,2.732c-0.203,0.04-0.546,0.071-1.032,0.091
		c-0.486,0.021-1.023,0.04-1.609,0.061c-0.587,0.02-1.184,0.04-1.791,0.061c-0.607,0.021-1.153,0.03-1.639,0.03
		c-1.335,0-2.368-0.364-3.096-1.093s-1.073-1.658-1.032-2.792l0.061-27.499l-7.103,1.275c-0.324-1.011-0.577-1.852-0.759-2.52
		c-0.182-0.667-0.294-1.214-0.333-1.639c-0.041-0.425-0.031-0.759,0.03-1.002c0.061-0.243,0.191-0.465,0.395-0.667
		c0.323-0.283,0.991-0.657,2.003-1.123c1.011-0.465,2.489-1.042,4.431-1.73c3.399-1.133,5.908-1.7,7.527-1.7
		c1.375,0,2.377,0.294,3.005,0.88c0.627,0.587,0.941,1.569,0.941,2.944L66.099,74.929z"/>
	<path d="M71.501,60.603c0-7.042,1.376-12.181,4.128-15.419c2.752-3.237,6.617-4.856,11.594-4.856c5.018,0,8.895,1.619,11.625,4.856
		c2.732,3.238,4.098,8.377,4.098,15.419c0,3.521-0.354,6.556-1.062,9.106c-0.707,2.549-1.729,4.644-3.064,6.282
		c-1.336,1.64-2.986,2.854-4.947,3.643c-1.965,0.789-4.199,1.184-6.709,1.184c-4.977,0-8.832-1.608-11.564-4.826
		C72.867,72.774,71.501,67.645,71.501,60.603z M81.699,60.603c0,2.469,0.121,4.533,0.365,6.192c0.242,1.66,0.596,2.996,1.061,4.006
		c0.465,1.012,1.043,1.73,1.73,2.155c0.688,0.425,1.457,0.637,2.307,0.637c0.891,0,1.689-0.212,2.398-0.637
		c0.707-0.425,1.305-1.143,1.791-2.155c0.484-1.011,0.85-2.346,1.092-4.006c0.244-1.659,0.365-3.723,0.365-6.192
		c0-2.509-0.121-4.603-0.365-6.283c-0.242-1.679-0.607-3.015-1.092-4.006c-0.486-0.991-1.072-1.7-1.76-2.125
		c-0.689-0.425-1.479-0.637-2.369-0.637c-0.85,0-1.619,0.212-2.307,0.637c-0.688,0.425-1.273,1.134-1.76,2.125
		c-0.486,0.992-0.85,2.328-1.092,4.006C81.82,56,81.699,58.094,81.699,60.603z"/>
</g>
</svg>
