<?xml version="1.0" encoding="UTF-8"?>
<svg xmlns="http://www.w3.org/2000/svg" xmlns:xlink="http://www.w3.org/1999/xlink" width="395pt" height="395pt" viewBox="0 0 395 395" version="1.1">
<g id="surface1">
<path style=" stroke:none;fill-rule:nonzero;fill:rgb(100%,100%,100%);fill-opacity:1;" d="M 197.5 49.375 C 115.691406 49.375 49.375 115.691406 49.375 197.5 C 49.375 279.308594 115.691406 345.625 197.5 345.625 C 279.308594 345.625 345.625 279.308594 345.625 197.5 C 345.625 115.691406 279.308594 49.375 197.5 49.375 "/>
<path style=" stroke:none;fill-rule:nonzero;fill:rgb(0%,48.627451%,76.078431%);fill-opacity:1;" d="M 197.5 49.375 C 115.691406 49.375 49.375 115.691406 49.375 197.5 C 49.375 279.308594 115.691406 345.625 197.5 345.625 C 279.308594 345.625 345.625 279.308594 345.625 197.5 C 345.625 115.691406 279.308594 49.375 197.5 49.375 M 86.40625 197.5 C 86.40625 136.144531 136.144531 86.40625 197.5 86.40625 C 258.855469 86.40625 308.59375 136.144531 308.59375 197.5 C 308.59375 258.855469 258.855469 308.59375 197.5 308.59375 C 136.144531 308.59375 86.40625 258.855469 86.40625 197.5 "/>
<path style=" stroke:none;fill-rule:nonzero;fill:rgb(5.882353%,30.588235%,56.862745%);fill-opacity:1;" d="M 175.875 120.476562 L 175.875 128.671875 C 175.875 130.941406 174.789062 132.226562 172.714844 132.226562 C 170.640625 132.226562 169.554688 130.941406 169.554688 128.671875 L 169.554688 119.339844 L 164.617188 120.476562 L 164.617188 128.671875 C 164.441406 130.90625 165.242188 133.109375 166.8125 134.710938 C 168.386719 136.308594 170.574219 137.152344 172.8125 137.015625 C 173.898438 136.972656 174.96875 136.738281 175.972656 136.324219 L 175.972656 139.335938 C 175.972656 142.199219 174.34375 142.988281 172.960938 142.988281 L 171.777344 142.988281 L 171.777344 147.925781 L 172.8125 147.925781 C 175.027344 148.011719 177.167969 147.128906 178.675781 145.507812 C 180.183594 143.886719 180.910156 141.6875 180.664062 139.484375 L 180.664062 119.339844 Z M 212.410156 120.476562 L 212.410156 128.671875 C 212.410156 130.941406 211.324219 132.226562 209.203125 132.226562 C 207.078125 132.226562 206.042969 130.941406 206.042969 128.671875 L 206.042969 119.339844 L 201.105469 120.476562 L 201.105469 128.671875 C 201.105469 133.0625 204.664062 136.621094 209.054688 136.621094 C 213.445312 136.621094 217.003906 133.0625 217.003906 128.671875 L 217.003906 119.339844 Z M 230.582031 120.476562 L 230.582031 128.671875 C 230.582031 130.941406 229.496094 132.226562 227.421875 132.226562 C 225.347656 132.226562 224.261719 130.941406 224.261719 128.671875 L 224.261719 119.339844 L 219.324219 120.476562 L 219.324219 128.671875 C 219.15625 130.863281 219.925781 133.023438 221.441406 134.613281 C 222.957031 136.207031 225.078125 137.078125 227.273438 137.015625 C 228.359375 136.972656 229.429688 136.738281 230.433594 136.324219 L 230.433594 139.335938 C 230.433594 142.199219 228.804688 142.988281 227.421875 142.988281 L 226.234375 142.988281 L 226.234375 147.925781 L 227.421875 147.925781 C 229.632812 148.015625 231.769531 147.128906 233.269531 145.503906 C 234.769531 143.882812 235.484375 141.679688 235.222656 139.484375 L 235.222656 119.734375 Z M 237.492188 124.621094 C 237.492188 126.746094 239.074219 128.226562 242.429688 129.066406 C 245.640625 130.003906 246.972656 130.398438 246.972656 131.632812 C 246.960938 132 246.820312 132.347656 246.578125 132.621094 C 246.023438 133.117188 245.300781 133.382812 244.554688 133.363281 C 244.554688 133.363281 242.136719 133.363281 241.9375 131.386719 L 237 132.472656 C 238.09375 135.5 241.105469 137.390625 244.308594 137.066406 C 246.492188 137.15625 248.625 136.375 250.234375 134.890625 C 251.1875 133.957031 251.722656 132.675781 251.714844 131.335938 C 251.714844 127.632812 248.207031 126.84375 245.195312 126.105469 C 243.074219 125.609375 242.136719 125.015625 242.085938 124.226562 C 242.035156 123.4375 242.726562 122.796875 244.160156 122.796875 C 245.589844 122.796875 246.132812 123.683594 246.28125 124.375 L 250.921875 123.289062 C 249.914062 120.492188 247.113281 118.753906 244.160156 119.09375 C 240.0625 119.09375 237.148438 121.363281 237.148438 124.523438 M 152.519531 110.601562 C 150.078125 110.339844 147.644531 111.15625 145.851562 112.832031 C 144.058594 114.511719 143.085938 116.886719 143.1875 119.339844 L 143.1875 136.816406 L 148.125 136.816406 L 148.125 123.734375 L 154.148438 123.734375 L 154.148438 119.339844 L 147.730469 119.339844 C 147.703125 118.066406 148.234375 116.847656 149.183594 116.003906 C 150.136719 115.15625 151.40625 114.769531 152.667969 114.945312 L 156.46875 114.945312 L 156.46875 110.601562 Z M 162.394531 110.601562 L 157.457031 111.6875 L 157.457031 136.816406 L 162.394531 136.816406 Z M 187.625 128.078125 C 187.914062 126.1875 189.632812 124.847656 191.539062 125.035156 C 193.441406 125.21875 194.871094 126.863281 194.789062 128.777344 C 194.707031 130.6875 193.144531 132.203125 191.230469 132.226562 C 190.199219 132.164062 189.234375 131.6875 188.558594 130.910156 C 187.878906 130.128906 187.542969 129.109375 187.625 128.078125 M 187.625 110.601562 L 182.6875 111.6875 L 182.6875 128.078125 C 182.984375 132.605469 186.839844 136.066406 191.371094 135.871094 C 195.902344 135.679688 199.449219 131.902344 199.355469 127.367188 C 199.265625 122.832031 195.566406 119.199219 191.03125 119.191406 C 189.855469 119.179688 188.691406 119.429688 187.625 119.933594 Z M 187.625 110.601562 "/>
<path style=" stroke:none;fill-rule:nonzero;fill:rgb(5.882353%,30.588235%,56.862745%);fill-opacity:1;" d="M 131.042969 259.5625 C 131.042969 256.453125 131.042969 253.738281 131.042969 251.46875 C 131.042969 249.195312 131.042969 247.617188 131.042969 246.53125 L 140.472656 246.53125 C 141.953125 246.5 143.433594 246.683594 144.867188 247.074219 C 146.140625 247.425781 147.335938 248.027344 148.371094 248.851562 C 149.367188 249.660156 150.132812 250.714844 150.59375 251.910156 C 151.179688 253.285156 151.464844 254.765625 151.433594 256.257812 C 151.480469 257.726562 151.210938 259.191406 150.644531 260.550781 C 150.164062 261.683594 149.4375 262.695312 148.519531 263.515625 C 147.566406 264.289062 146.453125 264.84375 145.261719 265.144531 C 143.929688 265.535156 142.550781 265.71875 141.164062 265.6875 L 139.582031 265.6875 L 137.953125 265.441406 L 137.953125 275.316406 L 131.042969 275.316406 C 131.042969 273.242188 131.042969 271.21875 131.042969 269.242188 C 131.042969 267.265625 131.042969 265.882812 131.042969 264.304688 C 131.042969 262.722656 131.042969 260.75 131.042969 259.5625 Z M 139.929688 260.503906 C 140.46875 260.574219 141.015625 260.574219 141.558594 260.503906 C 142.050781 260.355469 142.503906 260.101562 142.890625 259.761719 C 143.296875 259.335938 143.617188 258.832031 143.828125 258.28125 C 144.089844 257.554688 144.210938 256.78125 144.175781 256.007812 C 144.203125 255.269531 144.082031 254.53125 143.828125 253.835938 C 143.617188 253.300781 143.296875 252.8125 142.890625 252.40625 C 142.503906 252.050781 142.023438 251.8125 141.507812 251.714844 C 140.96875 251.632812 140.417969 251.632812 139.878906 251.714844 L 137.804688 251.714844 L 137.804688 260.652344 L 138.742188 260.652344 Z M 139.929688 260.503906 "/>
<path style=" stroke:none;fill-rule:nonzero;fill:rgb(5.882353%,30.588235%,56.862745%);fill-opacity:1;" d="M 154.050781 260.75 C 154.011719 258.5 154.292969 256.253906 154.890625 254.082031 C 155.355469 252.402344 156.199219 250.847656 157.359375 249.542969 C 158.414062 248.363281 159.757812 247.476562 161.257812 246.972656 C 164.667969 245.921875 168.316406 245.921875 171.726562 246.972656 C 173.226562 247.476562 174.570312 248.363281 175.625 249.542969 C 176.785156 250.847656 177.632812 252.402344 178.09375 254.082031 C 178.691406 256.253906 178.976562 258.5 178.933594 260.75 C 178.972656 263.015625 178.691406 265.277344 178.09375 267.464844 C 177.609375 269.125 176.765625 270.65625 175.625 271.957031 C 174.570312 273.136719 173.226562 274.023438 171.726562 274.523438 C 168.316406 275.578125 164.667969 275.578125 161.257812 274.523438 C 159.757812 274.023438 158.414062 273.136719 157.359375 271.957031 C 156.21875 270.65625 155.375 269.125 154.890625 267.464844 C 154.292969 265.277344 154.011719 263.015625 154.050781 260.75 Z M 161.109375 260.75 C 160.914062 263.265625 161.390625 265.785156 162.492188 268.058594 C 163.421875 269.339844 164.910156 270.097656 166.492188 270.097656 C 168.074219 270.097656 169.5625 269.339844 170.492188 268.058594 C 171.59375 265.785156 172.070312 263.265625 171.875 260.75 C 171.902344 259.292969 171.785156 257.835938 171.527344 256.40625 C 171.351562 255.367188 171 254.363281 170.492188 253.441406 C 170.105469 252.746094 169.519531 252.179688 168.8125 251.8125 C 168.09375 251.445312 167.296875 251.257812 166.492188 251.269531 C 164.867188 251.226562 163.339844 252.054688 162.492188 253.441406 C 161.390625 255.710938 160.914062 258.234375 161.109375 260.75 Z M 161.109375 260.75 "/>
<path style=" stroke:none;fill-rule:nonzero;fill:rgb(5.882353%,30.588235%,56.862745%);fill-opacity:1;" d="M 183.179688 260.601562 L 183.179688 257.046875 C 183.179688 255.859375 183.179688 254.773438 183.179688 253.6875 L 183.179688 250.777344 C 183.179688 249.886719 183.179688 249.144531 183.179688 248.601562 C 183.125 248.242188 183.125 247.875 183.179688 247.515625 C 183.328125 247.21875 183.574219 246.972656 183.871094 246.824219 C 184.324219 246.609375 184.808594 246.476562 185.304688 246.429688 L 187.871094 246.429688 C 188.4375 246.382812 189.003906 246.503906 189.5 246.777344 C 189.847656 246.777344 190.042969 247.417969 190.042969 248.160156 L 190.042969 250.921875 C 190.042969 252.011719 190.042969 253.144531 190.042969 254.378906 C 190.042969 255.613281 190.042969 256.800781 190.042969 257.984375 L 190.042969 275.066406 L 183.132812 275.066406 L 183.132812 270.128906 C 183.132812 268.699219 183.132812 267.117188 183.132812 265.191406 Z M 183.179688 260.601562 "/>
<path style=" stroke:none;fill-rule:nonzero;fill:rgb(5.882353%,30.588235%,56.862745%);fill-opacity:1;" d="M 195.425781 259.5625 C 195.425781 258.726562 195.425781 257.785156 195.425781 256.652344 L 195.425781 253.441406 C 195.425781 252.40625 195.425781 251.417969 195.425781 250.527344 L 195.425781 248.601562 C 195.34375 248.246094 195.34375 247.875 195.425781 247.515625 C 195.554688 247.21875 195.78125 246.976562 196.066406 246.824219 C 196.539062 246.625 197.039062 246.492188 197.550781 246.429688 L 200.066406 246.429688 C 200.410156 246.367188 200.761719 246.367188 201.105469 246.429688 C 201.425781 246.648438 201.695312 246.933594 201.894531 247.269531 L 212.65625 264.796875 C 212.65625 264.355469 212.65625 263.910156 212.410156 263.5625 C 212.164062 263.21875 212.410156 262.824219 212.410156 262.429688 C 212.433594 262.015625 212.433594 261.605469 212.410156 261.195312 L 212.410156 259.761719 C 212.410156 259.121094 212.410156 258.230469 212.410156 257.09375 L 212.410156 253.539062 C 212.410156 252.355469 212.410156 251.269531 212.410156 250.332031 L 212.410156 248.503906 C 212.351562 248.144531 212.351562 247.777344 212.410156 247.417969 C 212.570312 247.140625 212.789062 246.90625 213.054688 246.726562 C 213.488281 246.515625 213.957031 246.382812 214.4375 246.332031 L 216.707031 246.332031 C 217.289062 246.289062 217.867188 246.410156 218.386719 246.675781 C 218.730469 246.675781 218.929688 247.320312 218.929688 248.058594 C 218.929688 248.800781 218.929688 249.492188 218.929688 250.578125 C 218.929688 251.664062 218.929688 252.847656 218.929688 254.082031 C 218.929688 255.316406 218.929688 256.601562 218.929688 257.835938 C 218.929688 259.070312 218.929688 260.207031 218.929688 261.195312 L 218.929688 274.96875 L 212.3125 274.96875 L 201.648438 257.886719 C 201.679688 258.328125 201.679688 258.773438 201.648438 259.21875 C 201.683594 259.761719 201.683594 260.304688 201.648438 260.847656 C 201.699219 261.503906 201.699219 262.164062 201.648438 262.824219 L 201.648438 274.773438 L 195.03125 274.773438 C 195.03125 273.140625 195.03125 271.414062 195.03125 269.835938 C 195.03125 268.253906 195.03125 266.675781 195.03125 264.898438 C 195.03125 263.121094 195.425781 261.34375 195.425781 259.5625 Z M 195.425781 259.5625 "/>
<path style=" stroke:none;fill-rule:nonzero;fill:rgb(5.882353%,30.588235%,56.862745%);fill-opacity:1;" d="M 221.445312 251.8125 C 221.445312 250.875 221.445312 250.085938 221.445312 249.542969 C 221.414062 249.097656 221.414062 248.652344 221.445312 248.207031 C 221.398438 247.964844 221.398438 247.710938 221.445312 247.46875 C 221.421875 247.320312 221.421875 247.171875 221.445312 247.023438 C 221.652344 246.878906 221.890625 246.777344 222.136719 246.726562 C 222.664062 246.65625 223.195312 246.65625 223.71875 246.726562 L 243.46875 246.726562 C 243.46875 247.664062 243.46875 248.453125 243.46875 249.046875 C 243.496094 249.492188 243.496094 249.9375 243.46875 250.378906 C 243.488281 250.628906 243.488281 250.875 243.46875 251.121094 L 243.171875 251.515625 C 242.96875 251.679688 242.734375 251.796875 242.480469 251.863281 L 235.964844 251.863281 L 235.964844 268.550781 C 235.964844 270.527344 235.964844 272.796875 235.964844 275.214844 L 228.902344 275.214844 C 228.902344 272.746094 228.902344 270.277344 228.902344 268.304688 C 228.902344 266.328125 228.902344 264.15625 228.902344 262.28125 C 228.902344 260.402344 228.902344 258.578125 228.902344 256.800781 L 228.902344 251.8125 Z M 221.445312 251.8125 "/>
<path style=" stroke:none;fill-rule:nonzero;fill:rgb(5.882353%,30.588235%,56.862745%);fill-opacity:1;" d="M 255.664062 251.21875 C 254.769531 251.160156 253.882812 251.402344 253.144531 251.910156 C 252.582031 252.429688 252.277344 253.171875 252.304688 253.9375 C 252.3125 254.652344 252.617188 255.332031 253.144531 255.8125 C 253.804688 256.40625 254.535156 256.921875 255.316406 257.34375 L 258.082031 258.875 C 259.050781 259.441406 259.960938 260.101562 260.796875 260.847656 C 261.667969 261.589844 262.402344 262.472656 262.972656 263.464844 C 263.554688 264.628906 263.84375 265.917969 263.8125 267.21875 C 263.988281 269.480469 263.09375 271.691406 261.390625 273.191406 C 259.226562 274.6875 256.609375 275.386719 253.984375 275.167969 C 252.117188 275.230469 250.25 274.996094 248.453125 274.476562 C 247.386719 274.230469 246.390625 273.738281 245.542969 273.042969 C 245.398438 272.898438 245.28125 272.734375 245.195312 272.550781 C 245.140625 272.304688 245.140625 272.054688 245.195312 271.808594 C 245.15625 271.414062 245.15625 271.019531 245.195312 270.625 C 245.375 270.027344 245.605469 269.449219 245.886719 268.894531 C 247.089844 269.273438 248.308594 269.585938 249.542969 269.835938 C 250.714844 270.042969 251.902344 270.160156 253.097656 270.179688 C 255.464844 270.179688 256.652344 269.242188 256.652344 267.367188 C 256.679688 266.601562 256.375 265.859375 255.8125 265.339844 C 255.1875 264.699219 254.472656 264.148438 253.6875 263.710938 C 252.847656 263.21875 251.910156 262.675781 250.921875 262.179688 C 249.953125 261.628906 249.027344 261.003906 248.160156 260.304688 C 247.304688 259.5625 246.589844 258.675781 246.035156 257.6875 C 245.457031 256.539062 245.171875 255.269531 245.195312 253.984375 C 245.171875 252.78125 245.40625 251.585938 245.886719 250.480469 C 246.351562 249.515625 247.046875 248.683594 247.910156 248.058594 C 248.816406 247.398438 249.839844 246.914062 250.921875 246.628906 C 252.183594 246.316406 253.476562 246.167969 254.773438 246.183594 C 255.679688 246.109375 256.585938 246.109375 257.492188 246.183594 C 258.257812 246.269531 259.019531 246.417969 259.761719 246.628906 L 261.488281 247.21875 C 261.855469 247.375 262.1875 247.59375 262.476562 247.863281 C 262.632812 247.988281 262.734375 248.160156 262.773438 248.355469 C 262.828125 248.601562 262.828125 248.851562 262.773438 249.097656 C 262.828125 249.472656 262.828125 249.855469 262.773438 250.234375 C 262.574219 250.8125 262.328125 251.375 262.03125 251.910156 L 259.121094 251.8125 C 257.996094 251.480469 256.835938 251.28125 255.664062 251.21875 Z M 255.664062 251.21875 "/>
<path style=" stroke:none;fill-rule:nonzero;fill:rgb(5.882353%,30.588235%,56.862745%);fill-opacity:1;" d="M 191.328125 177.15625 C 191.328125 181.636719 190.171875 186.042969 187.96875 189.945312 C 185.273438 194.53125 181.949219 198.71875 178.09375 202.386719 L 160.617188 220.210938 L 184.316406 220.210938 C 186.6875 220.210938 188.515625 220.210938 189.847656 219.964844 C 191.179688 219.71875 192.265625 219.964844 193.203125 219.570312 C 193.402344 220.886719 193.550781 222.269531 193.648438 223.71875 C 193.75 225.460938 193.75 227.207031 193.648438 228.953125 C 193.703125 230.574219 193.054688 232.136719 191.871094 233.246094 C 190.386719 234.144531 188.664062 234.558594 186.933594 234.433594 L 142.496094 234.433594 C 142.101562 233.496094 141.707031 232.308594 141.261719 230.925781 C 140.816406 229.488281 140.601562 227.988281 140.621094 226.484375 C 140.617188 225.316406 140.765625 224.15625 141.0625 223.027344 C 141.617188 221.480469 142.378906 220.015625 143.335938 218.683594 C 144.976562 216.320312 146.742188 214.046875 148.617188 211.867188 C 150.988281 209.152344 154.097656 205.546875 158.097656 201.105469 C 160.566406 198.4375 162.59375 196.167969 164.269531 193.996094 C 165.75 192.183594 167.105469 190.269531 168.320312 188.265625 C 169.265625 186.714844 170.027344 185.058594 170.589844 183.328125 C 171.09375 181.734375 171.328125 180.066406 171.28125 178.390625 C 171.445312 175.941406 170.523438 173.539062 168.765625 171.824219 C 166.75 170.226562 164.222656 169.421875 161.652344 169.554688 C 159.988281 169.535156 158.328125 169.734375 156.714844 170.144531 C 155.136719 170.542969 153.753906 170.984375 152.46875 171.429688 C 151.1875 171.875 150.050781 172.269531 149.0625 172.664062 C 148.332031 172.996094 147.542969 173.195312 146.742188 173.257812 C 146.160156 173.214844 145.609375 172.988281 145.164062 172.613281 C 144.203125 171.710938 143.417969 170.640625 142.84375 169.453125 C 141.9375 168.246094 141.390625 166.808594 141.261719 165.308594 C 141.636719 164.332031 142.3125 163.503906 143.1875 162.9375 C 144.023438 162.191406 144.933594 161.527344 145.902344 160.960938 C 147.472656 159.996094 149.125 159.167969 150.839844 158.492188 C 153.109375 157.566406 155.457031 156.839844 157.851562 156.320312 C 160.773438 155.703125 163.753906 155.40625 166.738281 155.433594 C 170.078125 155.398438 173.40625 155.847656 176.613281 156.765625 C 179.472656 157.535156 182.144531 158.878906 184.464844 160.714844 C 186.722656 162.542969 188.515625 164.878906 189.699219 167.53125 C 190.925781 170.585938 191.480469 173.867188 191.328125 177.15625 Z M 191.328125 177.15625 "/>
<path style=" stroke:none;fill-rule:nonzero;fill:rgb(5.882353%,30.588235%,56.862745%);fill-opacity:1;" d="M 195.230469 183.082031 C 197.03125 181.203125 199.054688 179.542969 201.253906 178.144531 C 203.304688 176.742188 205.730469 175.984375 208.214844 175.972656 C 211.320312 175.917969 214.238281 177.441406 215.964844 180.019531 L 225.839844 194.4375 L 236.308594 177.75 C 236.664062 177.152344 237.132812 176.632812 237.691406 176.21875 C 238.246094 175.8125 238.886719 175.539062 239.566406 175.429688 C 240.546875 175.328125 241.535156 175.414062 242.480469 175.675781 C 243.945312 176.066406 245.382812 176.5625 246.777344 177.15625 C 248.71875 177.890625 250.496094 178.996094 252.011719 180.417969 C 252.765625 181.339844 252.570312 182.472656 251.417969 183.824219 L 235.222656 204.414062 C 239.023438 209.351562 242.085938 213.054688 244.355469 215.867188 C 246.628906 218.683594 248.40625 220.804688 249.6875 222.433594 L 252.652344 225.839844 L 254.625 227.867188 C 252.84375 229.730469 250.859375 231.386719 248.703125 232.804688 C 246.648438 234.246094 244.199219 235.023438 241.691406 235.023438 C 238.582031 235.113281 235.664062 233.53125 234.039062 230.878906 L 223.324219 215.125 L 212.015625 232.753906 C 211.652344 233.359375 211.203125 233.90625 210.683594 234.382812 C 210.109375 234.828125 209.429688 235.117188 208.707031 235.222656 C 207.742188 235.378906 206.757812 235.378906 205.796875 235.222656 C 204.332031 234.816406 202.910156 234.269531 201.546875 233.59375 C 199.59375 232.863281 197.796875 231.753906 196.265625 230.335938 C 195.523438 229.445312 195.773438 228.261719 197.054688 226.828125 L 213.695312 205.300781 C 210.140625 200.757812 207.277344 197.15625 205.105469 194.488281 L 200.167969 188.265625 C 199.285156 187.132812 198.328125 186.0625 197.300781 185.058594 Z M 195.230469 183.082031 "/>
</g>
</svg>
