<?xml version="1.0" encoding="UTF-8"?>
<svg xmlns="http://www.w3.org/2000/svg" xmlns:xlink="http://www.w3.org/1999/xlink" width="395pt" height="395pt" viewBox="-23.875 -23.75 191 190" version="1.1">
<g id="surface1">
<path style=" stroke:none;fill-rule:nonzero;fill:rgb(100%,100%,100%);fill-opacity:1;" d="M 149.578125 74.195312 C 149.714844 115.3125 116.679688 148.757812 75.78125 148.898438 C 34.890625 149.039062 1.621094 115.816406 1.484375 74.699219 C 1.347656 33.585938 34.382812 0.140625 75.28125 0 C 116.171875 -0.140625 149.441406 33.082031 149.578125 74.195312 "/>
<path style=" stroke:none;fill-rule:nonzero;fill:rgb(87.843137%,10.196078%,13.333333%);fill-opacity:1;" d="M 75.292969 3.546875 C 36.34375 3.679688 4.878906 35.53125 5.011719 74.6875 C 5.144531 113.847656 36.824219 145.484375 75.773438 145.351562 C 114.722656 145.21875 146.183594 113.363281 146.054688 74.207031 C 145.917969 35.050781 114.234375 3.414062 75.292969 3.546875 M 75.710938 127.628906 C 46.5 127.730469 22.738281 104 22.636719 74.632812 C 22.539062 45.261719 46.136719 21.375 75.347656 21.273438 C 104.558594 21.171875 128.320312 44.898438 128.417969 74.269531 C 128.519531 103.636719 104.917969 127.527344 75.710938 127.628906 "/>
<path style=" stroke:none;fill-rule:nonzero;fill:rgb(0%,0%,0%);fill-opacity:1;" d="M 41.386719 79.050781 L 34.003906 79.296875 C 33.992188 76.925781 34.003906 74.675781 34.023438 72.546875 C 34.019531 71.644531 34.023438 70.722656 34.035156 69.777344 C 34.050781 68.832031 34.058594 67.925781 34.070312 67.050781 C 34.082031 66.183594 34.085938 65.371094 34.082031 64.621094 C 34.082031 63.871094 34.082031 63.238281 34.078125 62.730469 C 34.066406 58.828125 34.039062 55.730469 34.003906 53.433594 C 33.964844 51.136719 33.945312 49.527344 33.941406 48.59375 L 52.574219 48.53125 C 52.605469 49.492188 52.636719 50.269531 52.667969 50.871094 C 52.699219 51.472656 52.710938 51.9375 52.699219 52.269531 C 52.683594 52.601562 52.648438 52.847656 52.585938 53.011719 C 52.527344 53.175781 52.441406 53.320312 52.320312 53.4375 C 52.140625 53.621094 51.910156 53.738281 51.628906 53.804688 C 51.34375 53.863281 50.875 53.894531 50.21875 53.898438 L 41.308594 53.882812 L 41.332031 61.535156 L 51.230469 61.5 L 51.25 66.585938 L 41.351562 66.621094 Z M 41.386719 79.050781 "/>
<path style=" stroke:none;fill-rule:nonzero;fill:rgb(0%,0%,0%);fill-opacity:1;" d="M 54.585938 62.574219 C 54.574219 59.179688 54.542969 56.277344 54.488281 53.859375 C 54.433594 51.445312 54.410156 49.769531 54.402344 48.839844 C 55.359375 48.75 56.746094 48.636719 58.566406 48.511719 C 60.386719 48.382812 62.3125 48.316406 64.34375 48.3125 C 66.042969 48.304688 67.621094 48.472656 69.070312 48.8125 C 70.519531 49.15625 71.773438 49.710938 72.835938 50.488281 C 73.898438 51.265625 74.722656 52.269531 75.308594 53.496094 C 75.894531 54.726562 76.191406 56.242188 76.199219 58.042969 C 76.203125 59.390625 76.035156 60.558594 75.691406 61.53125 C 75.355469 62.507812 74.929688 63.328125 74.425781 63.992188 C 73.921875 64.652344 73.355469 65.171875 72.730469 65.550781 C 72.105469 65.929688 71.523438 66.179688 70.988281 66.300781 C 72.367188 68.605469 73.472656 70.417969 74.296875 71.738281 C 75.125 73.054688 75.773438 74.058594 76.257812 74.746094 C 76.734375 75.433594 77.101562 75.914062 77.355469 76.183594 C 77.613281 76.453125 77.859375 76.710938 78.097656 76.945312 C 76.375 78.515625 74.6875 79.28125 73.046875 79.261719 C 71.523438 79.265625 70.429688 78.609375 69.769531 77.292969 L 64.585938 67.539062 L 61.808594 67.546875 L 61.847656 78.984375 L 54.457031 79.230469 C 54.480469 77.007812 54.503906 74.851562 54.527344 72.75 C 54.550781 70.945312 54.566406 69.117188 54.578125 67.253906 C 54.585938 65.390625 54.589844 63.832031 54.585938 62.574219 Z M 64.214844 62.449219 C 64.753906 62.445312 65.296875 62.363281 65.851562 62.195312 C 66.402344 62.027344 66.882812 61.773438 67.300781 61.425781 C 67.71875 61.078125 68.058594 60.628906 68.328125 60.070312 C 68.59375 59.515625 68.726562 58.832031 68.722656 58.023438 C 68.71875 57.214844 68.585938 56.53125 68.316406 55.976562 C 68.046875 55.421875 67.683594 54.972656 67.238281 54.628906 C 66.789062 54.285156 66.273438 54.039062 65.691406 53.890625 C 65.109375 53.742188 64.515625 53.667969 63.921875 53.671875 C 63.289062 53.675781 62.828125 53.6875 62.53125 53.699219 C 62.230469 53.71875 61.976562 53.738281 61.769531 53.769531 L 61.796875 62.414062 C 62.15625 62.441406 62.546875 62.457031 62.964844 62.457031 C 63.378906 62.453125 63.792969 62.449219 64.214844 62.449219 Z M 64.214844 62.449219 "/>
<path style=" stroke:none;fill-rule:nonzero;fill:rgb(0%,0%,0%);fill-opacity:1;" d="M 86.507812 73.539062 C 88.535156 73.53125 90.1875 73.53125 91.453125 73.546875 C 92.722656 73.554688 93.761719 73.550781 94.566406 73.535156 C 95.371094 73.515625 96.011719 73.484375 96.492188 73.4375 C 96.96875 73.390625 97.414062 73.308594 97.832031 73.183594 C 97.894531 73.515625 97.976562 73.980469 98.085938 74.578125 C 98.191406 75.179688 98.246094 75.792969 98.25 76.425781 C 98.25 77.207031 98.015625 77.804688 97.539062 78.230469 C 97.0625 78.65625 96.285156 78.867188 95.210938 78.867188 L 79.136719 78.921875 C 79.128906 76.519531 79.136719 74.257812 79.160156 72.125 C 79.15625 71.226562 79.160156 70.296875 79.171875 69.332031 C 79.179688 68.375 79.195312 67.449219 79.207031 66.566406 C 79.21875 65.679688 79.222656 64.847656 79.21875 64.066406 C 79.21875 63.285156 79.210938 62.625 79.210938 62.085938 C 79.207031 60.464844 79.203125 59.054688 79.199219 57.851562 C 79.195312 56.652344 79.179688 55.542969 79.160156 54.519531 C 79.144531 53.5 79.125 52.511719 79.109375 51.546875 C 79.089844 50.589844 79.082031 49.554688 79.078125 48.441406 L 97.707031 48.378906 C 97.738281 49.339844 97.773438 50.121094 97.804688 50.722656 C 97.835938 51.320312 97.84375 51.785156 97.832031 52.117188 C 97.816406 52.449219 97.78125 52.695312 97.722656 52.863281 C 97.664062 53.027344 97.574219 53.171875 97.457031 53.292969 C 97.277344 53.472656 97.046875 53.589844 96.765625 53.65625 C 96.476562 53.714844 96.007812 53.746094 95.351562 53.75 L 86.441406 53.734375 L 86.464844 60.800781 L 96.496094 60.765625 L 96.511719 65.765625 L 86.484375 65.800781 Z M 86.507812 73.539062 "/>
<path style=" stroke:none;fill-rule:nonzero;fill:rgb(0%,0%,0%);fill-opacity:1;" d="M 107.914062 73.464844 C 109.941406 73.460938 111.59375 73.460938 112.863281 73.472656 C 114.132812 73.484375 115.171875 73.480469 115.976562 73.460938 C 116.78125 73.441406 117.421875 73.410156 117.898438 73.367188 C 118.378906 73.316406 118.824219 73.234375 119.242188 73.113281 C 119.300781 73.441406 119.386719 73.910156 119.492188 74.507812 C 119.601562 75.105469 119.652344 75.71875 119.65625 76.351562 C 119.660156 77.132812 119.421875 77.734375 118.945312 78.15625 C 118.472656 78.582031 117.695312 78.792969 116.621094 78.796875 L 100.542969 78.847656 C 100.535156 76.445312 100.542969 74.183594 100.566406 72.050781 C 100.5625 71.148438 100.566406 70.21875 100.578125 69.257812 C 100.589844 68.296875 100.601562 67.375 100.613281 66.488281 C 100.625 65.605469 100.628906 64.773438 100.625 63.992188 C 100.621094 63.210938 100.621094 62.550781 100.621094 62.007812 C 100.613281 60.386719 100.609375 58.976562 100.605469 57.777344 C 100.601562 56.574219 100.589844 55.464844 100.570312 54.445312 C 100.550781 53.421875 100.539062 52.433594 100.519531 51.472656 C 100.5 50.511719 100.488281 49.476562 100.488281 48.367188 L 119.117188 48.300781 C 119.148438 49.261719 119.183594 50.042969 119.214844 50.644531 C 119.246094 51.246094 119.253906 51.710938 119.238281 52.039062 C 119.226562 52.371094 119.1875 52.617188 119.132812 52.78125 C 119.074219 52.945312 118.984375 53.089844 118.867188 53.210938 C 118.683594 53.390625 118.457031 53.511719 118.171875 53.574219 C 117.890625 53.636719 117.417969 53.667969 116.761719 53.667969 L 107.847656 53.65625 L 107.875 60.722656 L 117.902344 60.6875 L 117.917969 65.683594 L 107.886719 65.722656 Z M 107.914062 73.464844 "/>
<path style=" stroke:none;fill-rule:nonzero;fill:rgb(0%,0%,0%);fill-opacity:1;" d="M 34.222656 89.777344 C 34.21875 89.34375 34.214844 88.8125 34.207031 88.203125 C 34.195312 87.585938 34.1875 86.964844 34.175781 86.328125 C 34.167969 85.695312 34.164062 85.089844 34.160156 84.511719 C 34.15625 83.9375 34.15625 83.464844 34.15625 83.097656 C 34.355469 83.066406 34.652344 83.039062 35.035156 83.007812 C 35.421875 82.976562 35.839844 82.949219 36.300781 82.925781 C 36.757812 82.902344 37.230469 82.878906 37.726562 82.867188 C 38.21875 82.851562 38.675781 82.839844 39.09375 82.839844 C 40.199219 82.835938 41.175781 82.972656 42.035156 83.242188 C 42.894531 83.519531 43.617188 83.957031 44.207031 84.5625 C 44.796875 85.167969 45.242188 85.933594 45.550781 86.867188 C 45.859375 87.800781 46.015625 88.921875 46.019531 90.238281 C 46.023438 91.59375 45.878906 92.75 45.585938 93.707031 C 45.289062 94.664062 44.847656 95.449219 44.261719 96.0625 C 43.679688 96.675781 42.960938 97.128906 42.105469 97.414062 C 41.25 97.703125 40.253906 97.847656 39.125 97.851562 C 38.90625 97.851562 38.5625 97.839844 38.101562 97.824219 C 37.636719 97.804688 37.148438 97.773438 36.632812 97.742188 C 36.117188 97.707031 35.632812 97.667969 35.175781 97.625 C 34.71875 97.582031 34.378906 97.539062 34.164062 97.496094 C 34.175781 96.667969 34.183594 95.8125 34.195312 94.9375 C 34.207031 94.195312 34.214844 93.367188 34.222656 92.453125 C 34.226562 91.546875 34.226562 90.652344 34.222656 89.777344 Z M 39.140625 95.167969 C 39.632812 95.164062 40.082031 95.085938 40.488281 94.921875 C 40.894531 94.761719 41.234375 94.488281 41.511719 94.109375 C 41.785156 93.730469 41.996094 93.226562 42.148438 92.597656 C 42.300781 91.972656 42.371094 91.1875 42.367188 90.257812 C 42.363281 89.363281 42.289062 88.621094 42.132812 88.023438 C 41.980469 87.425781 41.757812 86.941406 41.476562 86.570312 C 41.191406 86.199219 40.847656 85.933594 40.4375 85.773438 C 40.03125 85.617188 39.574219 85.535156 39.0625 85.539062 C 38.800781 85.539062 38.542969 85.542969 38.28125 85.542969 C 38.019531 85.542969 37.832031 85.550781 37.714844 85.566406 C 37.714844 85.816406 37.71875 86.179688 37.71875 86.660156 C 37.722656 87.140625 37.722656 87.6875 37.726562 88.300781 C 37.726562 88.914062 37.726562 89.554688 37.722656 90.226562 C 37.714844 90.898438 37.714844 91.546875 37.71875 92.175781 C 37.722656 92.804688 37.722656 93.375 37.726562 93.894531 C 37.726562 94.410156 37.726562 94.8125 37.726562 95.085938 C 37.84375 95.113281 38.035156 95.136719 38.308594 95.148438 C 38.566406 95.164062 38.847656 95.167969 39.140625 95.167969 Z M 39.140625 95.167969 "/>
<path style=" stroke:none;fill-rule:nonzero;fill:rgb(0%,0%,0%);fill-opacity:1;" d="M 51.308594 95.101562 C 52.292969 95.097656 53.097656 95.097656 53.710938 95.105469 C 54.328125 95.109375 54.835938 95.109375 55.226562 95.097656 C 55.617188 95.089844 55.929688 95.074219 56.160156 95.050781 C 56.394531 95.027344 56.609375 94.988281 56.816406 94.929688 C 56.847656 95.089844 56.890625 95.3125 56.941406 95.605469 C 56.988281 95.894531 57.015625 96.195312 57.015625 96.5 C 57.015625 96.878906 56.902344 97.171875 56.671875 97.378906 C 56.441406 97.582031 56.0625 97.6875 55.539062 97.6875 L 47.722656 97.714844 C 47.71875 96.550781 47.722656 95.449219 47.730469 94.410156 C 47.730469 93.976562 47.730469 93.519531 47.738281 93.054688 C 47.746094 92.589844 47.75 92.140625 47.757812 91.707031 C 47.761719 91.28125 47.761719 90.875 47.761719 90.496094 C 47.761719 90.117188 47.761719 89.796875 47.761719 89.53125 C 47.757812 88.746094 47.753906 88.058594 47.753906 87.472656 C 47.75 86.886719 47.75 86.351562 47.738281 85.855469 C 47.730469 85.355469 47.71875 84.878906 47.710938 84.410156 C 47.699219 83.941406 47.695312 83.4375 47.695312 82.898438 L 56.75 82.867188 C 56.765625 83.335938 56.78125 83.714844 56.796875 84.003906 C 56.8125 84.296875 56.816406 84.519531 56.808594 84.683594 C 56.804688 84.84375 56.785156 84.960938 56.757812 85.046875 C 56.726562 85.125 56.683594 85.195312 56.625 85.253906 C 56.535156 85.34375 56.425781 85.398438 56.289062 85.425781 C 56.148438 85.460938 55.917969 85.476562 55.601562 85.476562 L 51.269531 85.464844 L 51.28125 88.902344 L 56.160156 88.886719 L 56.167969 91.316406 L 51.292969 91.332031 Z M 51.308594 95.101562 "/>
<path style=" stroke:none;fill-rule:nonzero;fill:rgb(0%,0%,0%);fill-opacity:1;" d="M 64.246094 94.949219 C 64.804688 94.945312 65.265625 94.945312 65.628906 94.941406 C 65.992188 94.941406 66.289062 94.929688 66.523438 94.910156 C 66.757812 94.886719 66.972656 94.855469 67.175781 94.804688 C 67.207031 94.953125 67.246094 95.195312 67.300781 95.527344 C 67.351562 95.863281 67.378906 96.179688 67.378906 96.46875 C 67.378906 96.847656 67.265625 97.140625 67.03125 97.347656 C 66.800781 97.550781 66.421875 97.65625 65.902344 97.65625 L 58.566406 97.683594 C 58.566406 97.59375 58.566406 97.296875 58.574219 96.785156 C 58.578125 96.273438 58.585938 95.640625 58.597656 94.882812 C 58.609375 94.125 58.617188 93.304688 58.625 92.421875 C 58.628906 91.539062 58.628906 90.675781 58.628906 89.851562 C 58.621094 88.609375 58.609375 87.472656 58.59375 86.4375 C 58.574219 85.398438 58.566406 84.585938 58.558594 83.980469 C 58.558594 83.765625 58.585938 83.582031 58.636719 83.4375 C 58.6875 83.289062 58.800781 83.171875 58.972656 83.074219 C 59.144531 82.976562 59.398438 82.910156 59.726562 82.875 C 60.050781 82.835938 60.492188 82.816406 61.042969 82.8125 C 61.417969 82.8125 61.703125 82.863281 61.890625 82.976562 C 62.078125 83.082031 62.175781 83.320312 62.175781 83.683594 L 62.105469 94.960938 C 62.972656 94.953125 63.691406 94.953125 64.246094 94.949219 Z M 64.246094 94.949219 "/>
<path style=" stroke:none;fill-rule:nonzero;fill:rgb(0%,0%,0%);fill-opacity:1;" d="M 68.527344 90.183594 C 68.527344 89.574219 68.523438 88.960938 68.511719 88.34375 C 68.503906 87.734375 68.496094 87.148438 68.496094 86.59375 C 68.496094 86.042969 68.488281 85.53125 68.480469 85.074219 C 68.472656 84.617188 68.46875 84.238281 68.46875 83.949219 C 68.46875 83.730469 68.492188 83.546875 68.539062 83.402344 C 68.589844 83.257812 68.707031 83.136719 68.878906 83.039062 C 69.050781 82.945312 69.300781 82.875 69.628906 82.839844 C 69.957031 82.800781 70.394531 82.78125 70.945312 82.777344 C 71.324219 82.777344 71.605469 82.828125 71.796875 82.941406 C 71.984375 83.050781 72.078125 83.285156 72.082031 83.652344 C 72.085938 84.046875 72.082031 84.527344 72.074219 85.097656 C 72.070312 85.664062 72.058594 86.261719 72.046875 86.890625 C 72.035156 87.519531 72.023438 88.148438 72.019531 88.777344 C 72.011719 89.402344 72.011719 89.964844 72.011719 90.460938 L 72.039062 97.640625 L 68.46875 97.761719 L 68.503906 95.222656 C 68.511719 94.480469 68.523438 93.660156 68.527344 92.769531 C 68.53125 91.878906 68.53125 91.015625 68.527344 90.183594 Z M 68.527344 90.183594 "/>
<path style=" stroke:none;fill-rule:nonzero;fill:rgb(0%,0%,0%);fill-opacity:1;" d="M 82.222656 83.902344 C 82.265625 83.667969 82.324219 83.472656 82.394531 83.320312 C 82.464844 83.167969 82.597656 83.042969 82.785156 82.957031 C 82.972656 82.867188 83.246094 82.808594 83.597656 82.777344 C 83.953125 82.746094 84.445312 82.730469 85.070312 82.730469 C 85.449219 82.730469 85.679688 82.839844 85.769531 83.066406 C 85.855469 83.292969 85.839844 83.617188 85.726562 84.039062 L 81.703125 97.558594 C 81.066406 97.617188 80.453125 97.671875 79.875 97.714844 C 79.367188 97.75 78.851562 97.769531 78.320312 97.789062 C 77.789062 97.804688 77.335938 97.785156 76.957031 97.730469 L 73.363281 84.300781 C 73.292969 84.011719 73.253906 83.769531 73.25 83.566406 C 73.25 83.371094 73.328125 83.214844 73.476562 83.097656 C 73.628906 82.980469 73.875 82.894531 74.21875 82.839844 C 74.554688 82.789062 75.03125 82.761719 75.640625 82.757812 C 75.902344 82.757812 76.117188 82.777344 76.28125 82.808594 C 76.449219 82.84375 76.582031 82.90625 76.675781 82.996094 C 76.769531 83.082031 76.847656 83.199219 76.90625 83.347656 C 76.964844 83.492188 77.015625 83.683594 77.058594 83.917969 L 79.578125 95.179688 Z M 82.222656 83.902344 "/>
<path style=" stroke:none;fill-rule:nonzero;fill:rgb(0%,0%,0%);fill-opacity:1;" d="M 90.402344 94.96875 C 91.390625 94.964844 92.191406 94.964844 92.808594 94.972656 C 93.425781 94.980469 93.933594 94.976562 94.320312 94.964844 C 94.714844 94.957031 95.027344 94.941406 95.257812 94.917969 C 95.488281 94.898438 95.707031 94.855469 95.910156 94.792969 C 95.941406 94.957031 95.980469 95.183594 96.03125 95.472656 C 96.082031 95.765625 96.109375 96.066406 96.109375 96.371094 C 96.109375 96.75 95.996094 97.046875 95.765625 97.25 C 95.53125 97.457031 95.15625 97.5625 94.632812 97.5625 L 86.816406 97.589844 C 86.8125 96.421875 86.816406 95.324219 86.824219 94.285156 C 86.824219 93.847656 86.824219 93.394531 86.832031 92.929688 C 86.835938 92.460938 86.839844 92.011719 86.847656 91.582031 C 86.855469 91.152344 86.855469 90.75 86.855469 90.367188 C 86.855469 89.992188 86.851562 89.671875 86.851562 89.40625 C 86.847656 88.617188 86.84375 87.929688 86.84375 87.347656 C 86.839844 86.761719 86.835938 86.226562 86.828125 85.726562 C 86.820312 85.230469 86.808594 84.75 86.800781 84.28125 C 86.789062 83.8125 86.785156 83.3125 86.785156 82.773438 L 95.839844 82.742188 C 95.855469 83.207031 95.871094 83.585938 95.886719 83.878906 C 95.902344 84.171875 95.90625 84.398438 95.898438 84.554688 C 95.894531 84.714844 95.875 84.835938 95.84375 84.914062 C 95.8125 84.992188 95.773438 85.066406 95.714844 85.125 C 95.628906 85.214844 95.515625 85.269531 95.375 85.296875 C 95.238281 85.332031 95.007812 85.34375 94.691406 85.34375 L 90.359375 85.339844 L 90.371094 88.777344 L 95.25 88.757812 L 95.257812 91.191406 L 90.382812 91.207031 Z M 90.402344 94.96875 "/>
<path style=" stroke:none;fill-rule:nonzero;fill:rgb(0%,0%,0%);fill-opacity:1;" d="M 97.71875 89.558594 C 97.714844 87.914062 97.699219 86.5 97.671875 85.324219 C 97.648438 84.148438 97.632812 83.335938 97.632812 82.882812 C 98.097656 82.839844 98.769531 82.785156 99.652344 82.722656 C 100.539062 82.660156 101.472656 82.628906 102.460938 82.628906 C 103.289062 82.625 104.054688 82.707031 104.757812 82.871094 C 105.460938 83.035156 106.070312 83.308594 106.589844 83.683594 C 107.105469 84.0625 107.507812 84.550781 107.789062 85.148438 C 108.078125 85.746094 108.21875 86.480469 108.222656 87.355469 C 108.222656 88.015625 108.144531 88.578125 107.976562 89.054688 C 107.8125 89.527344 107.605469 89.925781 107.359375 90.25 C 107.113281 90.570312 106.839844 90.824219 106.535156 91.007812 C 106.230469 91.191406 105.949219 91.3125 105.6875 91.371094 C 106.359375 92.492188 106.894531 93.371094 107.296875 94.015625 C 107.695312 94.65625 108.011719 95.144531 108.246094 95.476562 C 108.480469 95.8125 108.660156 96.046875 108.78125 96.175781 C 108.902344 96.308594 109.027344 96.433594 109.140625 96.546875 C 108.300781 97.308594 107.480469 97.683594 106.683594 97.671875 C 105.945312 97.675781 105.414062 97.355469 105.089844 96.714844 L 102.570312 91.972656 L 101.222656 91.980469 L 101.242188 97.539062 L 97.648438 97.660156 C 97.660156 96.582031 97.671875 95.527344 97.683594 94.507812 C 97.691406 93.632812 97.699219 92.742188 97.707031 91.835938 C 97.71875 90.929688 97.722656 90.171875 97.71875 89.558594 Z M 102.398438 89.5 C 102.660156 89.5 102.925781 89.460938 103.195312 89.375 C 103.460938 89.292969 103.699219 89.171875 103.902344 89.003906 C 104.101562 88.832031 104.269531 88.617188 104.402344 88.347656 C 104.53125 88.078125 104.59375 87.742188 104.59375 87.351562 C 104.59375 86.957031 104.523438 86.625 104.394531 86.355469 C 104.261719 86.085938 104.085938 85.867188 103.871094 85.699219 C 103.652344 85.53125 103.402344 85.414062 103.113281 85.339844 C 102.832031 85.265625 102.546875 85.234375 102.257812 85.234375 C 101.953125 85.234375 101.726562 85.238281 101.582031 85.246094 C 101.4375 85.253906 101.3125 85.265625 101.214844 85.277344 L 101.226562 89.480469 C 101.398438 89.492188 101.585938 89.5 101.792969 89.496094 C 101.992188 89.503906 102.199219 89.503906 102.398438 89.5 Z M 102.398438 89.5 "/>
<path style=" stroke:none;fill-rule:nonzero;fill:rgb(0%,0%,0%);fill-opacity:1;" d="M 108.804688 84.335938 C 108.65625 84.015625 108.578125 83.742188 108.5625 83.523438 C 108.546875 83.308594 108.617188 83.128906 108.773438 82.996094 C 108.933594 82.863281 109.195312 82.773438 109.558594 82.722656 C 109.917969 82.671875 110.40625 82.640625 111.015625 82.640625 C 111.292969 82.640625 111.511719 82.652344 111.671875 82.679688 C 111.828125 82.710938 111.960938 82.769531 112.0625 82.855469 C 112.164062 82.9375 112.246094 83.0625 112.304688 83.214844 C 112.367188 83.367188 112.429688 83.5625 112.503906 83.792969 L 114.683594 90.113281 L 117.054688 83.648438 C 117.140625 83.414062 117.230469 83.226562 117.328125 83.085938 C 117.421875 82.949219 117.5625 82.84375 117.75 82.777344 C 117.9375 82.710938 118.183594 82.667969 118.488281 82.644531 C 118.796875 82.621094 119.195312 82.609375 119.6875 82.609375 C 119.980469 82.609375 120.203125 82.707031 120.363281 82.90625 C 120.523438 83.101562 120.519531 83.398438 120.34375 83.792969 L 116.28125 92.867188 C 116.269531 93.464844 116.265625 94.046875 116.265625 94.597656 C 116.269531 95.152344 116.265625 95.640625 116.25 96.066406 C 116.238281 96.5625 116.230469 97.035156 116.234375 97.488281 L 112.664062 97.605469 C 112.664062 97.316406 112.671875 96.945312 112.683594 96.492188 C 112.695312 96.113281 112.703125 95.625 112.699219 95.027344 C 112.695312 94.425781 112.703125 93.710938 112.714844 92.882812 Z M 108.804688 84.335938 "/>
</g>
</svg>
