<?xml version="1.0" encoding="utf-8"?>
<!-- Generator: Adobe Illustrator 16.0.3, SVG Export Plug-In . SVG Version: 6.00 Build 0)  -->
<!DOCTYPE svg PUBLIC "-//W3C//DTD SVG 1.1//EN" "http://www.w3.org/Graphics/SVG/1.1/DTD/svg11.dtd">
<svg version="1.1" id="Layer_1" xmlns="http://www.w3.org/2000/svg" xmlns:xlink="http://www.w3.org/1999/xlink" x="0px" y="0px"
	 width="350px" height="350px" viewBox="0 0 350 350" enable-background="new 0 0 350 350" xml:space="preserve">
<title>New Look Roundel</title>
<path fill="#FFFFFF" d="M350,174.989c0.006,96.65-78.339,175.005-174.989,175.011C78.361,350.006,0.007,271.66,0,175.01
	C-0.006,78.361,78.34,0.006,174.989,0c0.019,0,0.037,0,0.056,0C271.675,0.017,350,78.357,350,174.989"/>
<g>
	<path fill="#231F20" d="M136.801,92.945c0,8.024-0.616,72.847-0.616,72.847l-20.024,0.74v-63.833l-14.215,2.593
		c0,0-1.11-2.716-1.852-6.051c-0.742-3.335-1.609-5.062,2.843-7.161c4.449-2.1,19.033-7.779,25.832-7.779
		C132.722,84.3,136.801,84.794,136.801,92.945"/>
	<path fill="#231F20" d="M188.713,99.258c-1.609,5.187-25.091,76.676-25.957,78.775c-1.606,3.948-3.462,5.186-8.036,4.939
		c-2.718-0.25-12.481-1.11-12.481-1.11s1.113-2.471,2.349-5.805c1.112-3.334,26.696-80.997,27.563-83.59
		c0.864-2.471,2.1-5.435,7.292-5.187c5.066,0.123,13.35,0.988,13.35,0.988S190.316,94.074,188.713,99.258"/>
	<path fill="#231F20" d="M248.035,120.02c0,14.445-9.393,22.965-13.225,26.793c-3.83,3.704-18.539,18.643-18.539,18.643h23.113
		c8.404,0,10.629-0.613,10.629-0.613s0.617,4.566,0.617,8.393c0,3.952-0.865,6.666-7.168,6.666h-45.607c0,0-1.977-3.578-1.977-8.146
		c0-4.692,2.225-7.779,5.438-11.485c23.732-27.162,26.201-30.618,26.201-37.904c0-7.161-5.438-8.889-9.639-8.889
		c-4.203,0-7.666,1.233-14.09,3.578c-1.98,0.621-3.215,0.125-5.441-3.456c-2.1-3.582-2.223-5.928,0.619-8.026
		c2.598-1.729,10.012-7.037,23.855-7.037C236.416,98.535,248.035,105.573,248.035,120.02"/>
	<path fill="#EC1C24" d="M175,300.009c-69.035,0-125.004-55.972-125.004-125.01c0-69.037,55.969-125.005,125.004-125.005
		c69.04,0,125.004,55.968,125.004,125.005C300.004,244.037,244.039,300.009,175,300.009 M175,8.327
		C82.948,8.327,8.328,82.949,8.328,174.999c0,92.054,74.62,166.674,166.672,166.674c92.051,0,166.672-74.62,166.672-166.674
		C341.672,82.949,267.051,8.327,175,8.327"/>
	<path fill="#231F20" d="M106.161,221.828c0,0,2.701,0.349,4.878,0.349c3.048,0,8.186-2.088,8.186-8.878
		c0-4.179-0.871-10.092-8.186-10.092c-1.917,0-4.878,0.175-4.878,0.175V221.828z M111.212,192.939
		c8.884,0,22.559,2.955,22.559,20.36c0,15.664-12.282,18.973-20.729,18.973c-2.526,0-6.971-0.782-6.971-0.782v20.276l-14.194,0.438
		c0,0,0.348-16.363,0.348-28.547c0-12.186-0.174-29.763-0.174-29.763S102.24,192.939,111.212,192.939"/>
	<path fill="#231F20" d="M150.495,212.341c0,1.221-0.609,4.786-0.609,4.786l0.262,0.177c0,0,4.183-7.833,9.756-7.833
		c2.962,0,4.182,1.48,4.182,4.002c0,2.437-0.35,6.53-0.35,6.53c-7.839-0.611-12.977,4.786-12.977,4.786v27.324l-13.499,0.264
		c0,0,0.172-11.055,0.172-20.628c0-9.658-0.087-15.84-0.172-17.754c-0.089-3.828,4.964-4.524,10.102-4.524
		C150.061,209.471,150.495,211.123,150.495,212.341"/>
	<path fill="#231F20" d="M180.809,213.125v38.9l-13.413,0.437c0,0,0.174-11.401,0.174-21.93c0-10.44-0.174-14.968-0.174-16.8
		c0-1.825,0.697-4.262,9.231-4.262C179.676,209.471,180.809,210.43,180.809,213.125 M180.895,195.2c0,7.655-0.957,9.484-6.792,9.746
		c-5.924,0.346-6.796-1.564-6.796-7.921c0-2.177,0.437-4.784,9.06-4.784C179.24,192.241,180.895,192.935,180.895,195.2"/>
	<path fill="#231F20" d="M213.82,212.256c1.828,1.132,2.439,2.088,0.262,7.747c0,0-3.57-0.959-6.881-0.959
		c-3.396,0-8.971,1.652-8.971,12.01c0,10.446,4.615,12.184,8.709,12.184s7.838-1.13,7.838-1.13c1.568,4.612,1.133,6.872-0.695,7.918
		c-1.83,1.13-4.529,2.613-11.324,2.613c-13.064,0-18.379-8.702-18.379-21.063c0-12.445,5.402-22.019,18.467-22.019
		C209.029,209.557,212.34,211.299,213.82,212.256"/>
	<path fill="#231F20" d="M230.631,227.052h14.371c0-2.263,0.262-8.27-6.443-8.27C234.377,218.782,230.631,222.003,230.631,227.052
		 M257.982,229.051c0,2.698-1.133,4.612-5.051,4.612h-22.387c-0.436,4.091,1.133,9.226,10.191,9.226
		c8.014,0,14.371-1.825,14.371-1.825c2.092,5.479,1.133,7.744-1.744,8.874c-2.871,1.133-7.141,2.439-14.195,2.439
		c-11.672,0-22.559-4.528-22.559-20.802c0-16.359,11.063-22.104,22.385-22.104C254.236,209.471,257.982,218.523,257.982,229.051"/>
</g>
</svg>
