<svg id="Layer_1" data-name="Layer 1" xmlns="http://www.w3.org/2000/svg" viewBox="0 0 80 80"><defs><style>.cls-1{fill:#fff;}.cls-2{fill:#e01a22;}.cls-2,.cls-3{fill-rule:evenodd;}.cls-3{fill:#fd0;}.cls-4{fill:#262626;}</style></defs><path class="cls-1" d="M40,10A30,30,0,1,0,70,40,30,30,0,0,0,40,10"/><path class="cls-2" d="M19.53,25.42v9.67H58.94A3,3,0,0,0,62,32V25.42Z"/><path class="cls-3" d="M22.44,32.7H25.5l.24-1.14H24.15L25,27.67H23.55Zm3.28,0h1.46l1.11-5H26.83Zm4.49-2.52c-.33,1.48-.44,1.69-.75,1.69s-.33-.21,0-1.69.43-1.68.75-1.68S30.53,28.71,30.21,30.18Zm.11,3.43,1-.72-.47-.61a4.09,4.09,0,0,0,.82-2.1c.35-1.55.58-2.61-1.3-2.61S28.3,28.63,28,30.18s-.57,2.62,1.31,2.62h.26l.22,0Zm3.53-2.35c-.1.43-.19.61-.47.61s-.3-.18-.21-.61l.8-3.59H32.51L31.77,31c-.27,1.25,0,1.81,1.4,1.81A2,2,0,0,0,35.37,31l.74-3.32H34.64Zm4.2-1.08c-.33,1.48-.44,1.69-.75,1.69s-.33-.21,0-1.69.43-1.68.75-1.68S38.37,28.71,38.05,30.18Zm-2.26,0c-.36,1.61-.57,2.62,1.3,2.62s2.1-1,2.46-2.62.58-2.61-1.3-2.61S36.14,28.63,35.79,30.18Zm5.85-1.5h.16c.33,0,.52.1.44.52s-.39.59-.63.59h-.22Zm-2.35,4h1.46l.44-2h.27c.26,0,.38.08.29.51-.06.24-.09.5-.14.74s-.13.62,0,.73h1.55v-.07a.23.23,0,0,1-.12-.15,1.87,1.87,0,0,1,.06-.59l.1-.42a1.83,1.83,0,0,0,.05-.86.66.66,0,0,0-.61-.4h0A1.34,1.34,0,0,0,43.74,29c.18-.84-.14-1.32-1.15-1.32H40.4Zm4,0h2.55l.54-1.14H45l.87-3.89H44.41Zm5.59,0H50.4l-.12-5H48.44l-2.34,5h1.5l.32-.77h1ZM49,30.83h-.67l.8-2.06h0Zm4.41-.09h0l-.07-3.07H51.73l-1.11,5H52l.68-3.1h0l.12,3.1h1.57l1.11-5H54.07ZM57,28.68h.21c.45,0,.45.27.34.77l-.32,1.47c-.09.38-.23.76-.59.76h-.3Zm-2.35,4h2.13c1.52,0,1.88-1.42,2.12-2.52s.27-1.46.13-1.85a1.08,1.08,0,0,0-1.16-.66H55.75Z"/><path class="cls-4" d="M19.61,37H29v3H23.37v1.36h5.25v2.77H23.37v3.49H19.61Z"/><path class="cls-4" d="M29.9,37h5.49a5.66,5.66,0,0,1,4,1.21,3.26,3.26,0,0,1,1,2.54v0a3.46,3.46,0,0,1-2.21,3.27l2.61,3.62H36.58l-2.12-3h-.8v3H29.9Zm5.38,5.07c.9,0,1.44-.38,1.44-1v0c0-.68-.56-1-1.43-1H33.66v2.09Z"/><path class="cls-4" d="M41.38,37H51v2.92H45.07V41h5.49V43.6H45.07v1.16h6v2.92H41.38Z"/><path class="cls-4" d="M52.05,37h9.58v2.92H55.74V41h5.49V43.6H55.74v1.16h6v2.92H52.05Z"/><path class="cls-4" d="M19.53,49.27h2.13c2.21,0,3.31,1,3.31,2.59v0c0,1.56-1.13,2.67-3.37,2.67H19.53Zm1.86,1.54V53h.31c.85,0,1.4-.33,1.4-1.1h0c0-.76-.55-1.09-1.4-1.09Z"/><path class="cls-4" d="M25.48,49.27h4.74v1.44H27.31v.54H30v1.27H27.31v.58h3v1.45H25.48Z"/><path class="cls-4" d="M30.77,49.27h1.85V53h2.62v1.51H30.77Z"/><path class="cls-4" d="M35.66,49.27h1.86v5.28H35.66Z"/><path class="cls-4" d="M37.77,49.27h2.08l1.08,3,1.08-3h2.05L41.8,54.58H40Z"/><path class="cls-4" d="M44.29,49.27H49v1.44H46.12v.54h2.72v1.27H46.12v.58h3v1.45H44.29Z"/><path class="cls-4" d="M49.58,49.27h2.71a2.81,2.81,0,0,1,2,.6,1.63,1.63,0,0,1,.5,1.25v0a1.7,1.7,0,0,1-1.09,1.61L55,54.55H52.88L51.83,53h-.39v1.51H49.58Zm2.66,2.51c.44,0,.71-.19.71-.51v0c0-.34-.27-.5-.7-.5h-.81v1Z"/><path class="cls-4" d="M56.71,52.68l-2.09-3.41H56.7L57.65,51l1-1.73h2.06l-2.1,3.38v1.9H56.71Z"/><path class="cls-4" d="M61.38,50.06l-.5.45-.31-.5.66-.19-.66-.19.31-.49.5.44L61.22,49h.59l-.15.63.5-.44.31.49-.67.19.67.19-.31.5-.5-.45.15.63h-.59Z"/></svg>