<svg id="Layer_1" data-name="Layer 1" xmlns="http://www.w3.org/2000/svg" viewBox="0 0 80 80"><defs><style>.cls-1{fill:#fff;}.cls-2{fill:#e01a22;}</style></defs><path class="cls-1" d="M40,10A30,30,0,1,0,70,40,30,30,0,0,0,40,10"/><rect class="cls-2" x="54.21" y="39.33" width="1.69" height="7.1"/><path class="cls-2" d="M22.39,46.65a4.79,4.79,0,1,1,4.78-4.79A4.79,4.79,0,0,1,22.39,46.65Zm0-9.11a4.33,4.33,0,1,0,4.33,4.32A4.33,4.33,0,0,0,22.39,37.54Z"/><path class="cls-2" d="M22.39,42.09a.23.23,0,0,1-.23-.23V38.69a.23.23,0,0,1,.46,0v3.17A.23.23,0,0,1,22.39,42.09Z"/><path class="cls-2" d="M23.87,43.57a.23.23,0,0,1-.17-.07L22.23,42a.24.24,0,0,1,0-.33.22.22,0,0,1,.32,0L24,43.18a.22.22,0,0,1,0,.32A.23.23,0,0,1,23.87,43.57Z"/><path class="cls-2" d="M28.94,36.86h2.9a4.84,4.84,0,0,1,2.86.61,3.38,3.38,0,0,1,.7,4.38,2.54,2.54,0,0,1-1.58,1L36,46.43h-2L31.36,42h.38a3,3,0,0,0,1.72-.35,1.79,1.79,0,0,0,.6-1.39,1.63,1.63,0,0,0-.71-1.39A2.53,2.53,0,0,0,32,38.56H30.87v7.87H28.94Z"/><path class="cls-2" d="M44.1,46.43H42.4v-1A2.62,2.62,0,0,1,40,46.65a3.77,3.77,0,0,1,0-7.54,2.65,2.65,0,0,1,2.39,1.26v-1h1.7Zm-6-3.52a2.13,2.13,0,0,0,2.16,2.16,2,2,0,0,0,1.88-1.14,2.45,2.45,0,0,0,.28-1,2.29,2.29,0,0,0-.2-1,2.07,2.07,0,0,0-2-1.25A2.13,2.13,0,0,0,38.1,42.9Z"/><path class="cls-2" d="M45.52,39.33h1.59v1a2.94,2.94,0,0,1,2.51-1.26,3.78,3.78,0,0,1,0,7.54,2.78,2.78,0,0,1-2.42-1.16v3.42H45.52Zm5.93,3.54a2.13,2.13,0,0,0-2.17-2.18,2.08,2.08,0,0,0-1.54.65,2.24,2.24,0,0,0-.6,1.56,2.16,2.16,0,1,0,4.31,0Z"/><path class="cls-2" d="M64.58,46.43H63v-1a2.59,2.59,0,0,1-2.43,1.24,3.78,3.78,0,0,1,0-7.54,2.78,2.78,0,0,1,2.38,1.14V36.86h1.7Zm-5.95-3.56a2.12,2.12,0,0,0,2.17,2.19,2.23,2.23,0,0,0,1.58-.65A2.1,2.1,0,0,0,63,42.83a2.07,2.07,0,0,0-.64-1.52,2.15,2.15,0,0,0-1.54-.62,2.12,2.12,0,0,0-2.18,2.17Z"/><path class="cls-2" d="M39,37a1.42,1.42,0,0,1-1.39,1,1.48,1.48,0,1,1,0-3,1.44,1.44,0,0,1,1.39,1h-.6a.91.91,0,0,0-.8-.52,1,1,0,0,0,0,1.95.89.89,0,0,0,.79-.5Z"/><path class="cls-2" d="M39.32,35.14h.5V38h-.5Z"/><path class="cls-2" d="M40.24,35.14h.51v.45h-.51Zm0,.74h.51V38h-.51Z"/><path class="cls-2" d="M43.27,37.22a1.13,1.13,0,1,1,0-.56h-.52a.59.59,0,0,0-.57-.38.63.63,0,0,0-.45.18.75.75,0,0,0-.17.47.62.62,0,0,0,.62.65.59.59,0,0,0,.57-.36Z"/><path class="cls-2" d="M43.54,35.14h.51v1.54l.73-.8h.6l-.88.93L45.38,38h-.57l-.76-1.05V38h-.51Z"/><path class="cls-2" d="M47.94,36.24l-.51.95.64.65-.2.2-.59-.61a.89.89,0,0,1-.86.62.83.83,0,0,1-.86-.81,1,1,0,0,1,.69-.86,1,1,0,0,1-.36-.64.67.67,0,0,1,1.33,0c0,.38-.3.54-.56.67l.58.59.39-.76Zm-1.51.32c-.43.2-.56.43-.56.66a.55.55,0,0,0,.56.55c.34,0,.49-.19.66-.53Zm.12-1.22a.39.39,0,0,0-.38.38.8.8,0,0,0,.32.52c.31-.15.46-.25.46-.5a.39.39,0,0,0-.39-.4Z"/><path class="cls-2" d="M51.13,37a1.42,1.42,0,0,1-1.39,1,1.48,1.48,0,1,1,0-3,1.44,1.44,0,0,1,1.39,1h-.6a.91.91,0,0,0-.8-.52,1,1,0,0,0,0,1.95.89.89,0,0,0,.79-.5Z"/><path class="cls-2" d="M51.32,36.93a1.13,1.13,0,1,1,1.13,1.12,1.1,1.1,0,0,1-1.13-1.12Zm.5,0a.63.63,0,1,0,1.25,0,.62.62,0,0,0-.62-.64.62.62,0,0,0-.63.64Z"/><path class="cls-2" d="M53.89,35.14h.51V38h-.51Z"/><path class="cls-2" d="M54.82,35.14h.5V38h-.5Z"/><path class="cls-2" d="M56.12,37.1a.58.58,0,0,0,.61.53.57.57,0,0,0,.51-.29h.52a1.15,1.15,0,0,1-.43.53,1,1,0,0,1-.61.19,1.13,1.13,0,0,1,0-2.25,1.08,1.08,0,0,1,.79.33,1.15,1.15,0,0,1,.31,1Zm1.2-.38a.59.59,0,0,0-.6-.48.58.58,0,0,0-.6.48Z"/><path class="cls-2" d="M60.23,37.22a1.13,1.13,0,1,1-1.11-1.41,1.13,1.13,0,0,1,1.11.85h-.52a.6.6,0,0,0-.57-.38.61.61,0,0,0-.45.18.7.7,0,0,0-.17.47.61.61,0,0,0,.62.65.6.6,0,0,0,.57-.36Z"/><path class="cls-2" d="M60.67,36.27h-.35v-.39h.35v-.74h.5v.74h.36v.39h-.36V38h-.5Z"/><rect class="cls-2" x="15.57" y="39.24" width="4.47" height="0.45" rx="0.22"/><rect class="cls-2" x="14" y="39.24" width="0.8" height="0.45" rx="0.22"/><rect class="cls-2" x="15.06" y="40.72" width="0.87" height="0.45" rx="0.22"/><rect class="cls-2" x="16.62" y="40.72" width="3.42" height="0.45" rx="0.22"/></svg>